<svg width="32" height="32" viewBox="0 0 32 32" fill="none" xmlns="http://www.w3.org/2000/svg">
<path d="M16 2C17.5155 2 18.969 2.52678 20.0406 3.46447C21.1122 4.40215 21.7143 5.67392 21.7143 7V8H10.2857V7C10.2857 5.67392 10.8878 4.40215 11.9594 3.46447C13.031 2.52678 14.4845 2 16 2ZM24 8V7C24 5.14348 23.1571 3.36301 21.6569 2.05025C20.1566 0.737498 18.1217 0 16 0C13.8783 0 11.8434 0.737498 10.3431 2.05025C8.84286 3.36301 8 5.14348 8 7V8H0V28C0 29.0609 0.481631 30.0783 1.33894 30.8284C2.19625 31.5786 3.35901 32 4.57143 32H27.4286C28.641 32 29.8038 31.5786 30.6611 30.8284C31.5184 30.0783 32 29.0609 32 28V8H24Z" fill="black"/>
</svg>
