<svg width="36" height="36" viewBox="0 0 36 36" fill="none" xmlns="http://www.w3.org/2000/svg">
<path fill-rule="evenodd" clip-rule="evenodd" d="M4.5 5.625C4.20163 5.625 3.91548 5.74353 3.7045 5.95451C3.49353 6.16548 3.375 6.45163 3.375 6.75V9C3.375 9.29837 3.49353 9.58452 3.7045 9.7955C3.91548 10.0065 4.20163 10.125 4.5 10.125H6.75C7.04837 10.125 7.33452 10.0065 7.5455 9.7955C7.75647 9.58452 7.875 9.29837 7.875 9V6.75C7.875 6.45163 7.75647 6.16548 7.5455 5.95451C7.33452 5.74353 7.04837 5.625 6.75 5.625H4.5ZM6.75 6.75H4.5V9H6.75V6.75Z" fill="black"/>
<path d="M11.25 7.875C11.25 7.57663 11.3685 7.29048 11.5795 7.07951C11.7905 6.86853 12.0766 6.75 12.375 6.75H32.625C32.9234 6.75 33.2095 6.86853 33.4205 7.07951C33.6315 7.29048 33.75 7.57663 33.75 7.875C33.75 8.17337 33.6315 8.45952 33.4205 8.67049C33.2095 8.88147 32.9234 9 32.625 9H12.375C12.0766 9 11.7905 8.88147 11.5795 8.67049C11.3685 8.45952 11.25 8.17337 11.25 7.875ZM12.375 15.75C12.0766 15.75 11.7905 15.8685 11.5795 16.0795C11.3685 16.2905 11.25 16.5766 11.25 16.875C11.25 17.1734 11.3685 17.4595 11.5795 17.6705C11.7905 17.8815 12.0766 18 12.375 18H32.625C32.9234 18 33.2095 17.8815 33.4205 17.6705C33.6315 17.4595 33.75 17.1734 33.75 16.875C33.75 16.5766 33.6315 16.2905 33.4205 16.0795C33.2095 15.8685 32.9234 15.75 32.625 15.75H12.375ZM12.375 24.75C12.0766 24.75 11.7905 24.8685 11.5795 25.0795C11.3685 25.2905 11.25 25.5766 11.25 25.875C11.25 26.1734 11.3685 26.4595 11.5795 26.6705C11.7905 26.8815 12.0766 27 12.375 27H32.625C32.9234 27 33.2095 26.8815 33.4205 26.6705C33.6315 26.4595 33.75 26.1734 33.75 25.875C33.75 25.5766 33.6315 25.2905 33.4205 25.0795C33.2095 24.8685 32.9234 24.75 32.625 24.75H12.375Z" fill="black"/>
<path fill-rule="evenodd" clip-rule="evenodd" d="M3.375 15.75C3.375 15.4516 3.49353 15.1655 3.7045 14.9545C3.91548 14.7435 4.20163 14.625 4.5 14.625H6.75C7.04837 14.625 7.33452 14.7435 7.5455 14.9545C7.75647 15.1655 7.875 15.4516 7.875 15.75V18C7.875 18.2984 7.75647 18.5845 7.5455 18.7955C7.33452 19.0065 7.04837 19.125 6.75 19.125H4.5C4.20163 19.125 3.91548 19.0065 3.7045 18.7955C3.49353 18.5845 3.375 18.2984 3.375 18V15.75ZM4.5 15.75H6.75V18H4.5V15.75ZM4.5 23.625C4.20163 23.625 3.91548 23.7435 3.7045 23.9545C3.49353 24.1655 3.375 24.4516 3.375 24.75V27C3.375 27.2984 3.49353 27.5845 3.7045 27.7955C3.91548 28.0065 4.20163 28.125 4.5 28.125H6.75C7.04837 28.125 7.33452 28.0065 7.5455 27.7955C7.75647 27.5845 7.875 27.2984 7.875 27V24.75C7.875 24.4516 7.75647 24.1655 7.5455 23.9545C7.33452 23.7435 7.04837 23.625 6.75 23.625H4.5ZM6.75 24.75H4.5V27H6.75V24.75Z" fill="black"/>
</svg>
