<svg width="32" height="32" viewBox="0 0 32 32" fill="none" xmlns="http://www.w3.org/2000/svg">
<path fill-rule="evenodd" clip-rule="evenodd" d="M31.634 0.225653C31.7485 0.319527 31.8407 0.437657 31.904 0.571513C31.9673 0.705368 32.0001 0.851609 32 0.999676V29.0005C31.9999 29.2316 31.9197 29.4555 31.7731 29.6342C31.6265 29.8129 31.4226 29.9352 31.196 29.9805L21.196 31.9806C21.0666 32.0064 20.9334 32.0064 20.804 31.9806L11 30.0205L1.196 31.9806C1.05098 32.0096 0.901331 32.0061 0.757841 31.9702C0.614352 31.9344 0.480592 31.8672 0.366199 31.7735C0.251805 31.6798 0.159627 31.5618 0.0963035 31.4282C0.0329804 31.2945 8.93055e-05 31.1485 0 31.0006L0 2.99974C0.000139564 2.76864 0.0803122 2.54472 0.226887 2.36605C0.373461 2.18739 0.57739 2.065 0.804 2.01971L10.804 0.0196468C10.9334 -0.00621545 11.0666 -0.00621545 11.196 0.0196468L21 1.97971L30.804 0.0196468C30.949 -0.00952244 31.0986 -0.00617531 31.2421 0.0294471C31.3857 0.0650695 31.5195 0.13208 31.634 0.225653ZM20 3.81976L12 2.21971V28.1805L20 29.7805V3.81976ZM22 29.7805L30 28.1805V2.21971L22 3.81976V29.7805ZM10 28.1805V2.21971L2 3.81976V29.7805L10 28.1805Z" fill="black"/>
</svg>
