<svg width="48" height="48" viewBox="0 0 48 48" fill="none" xmlns="http://www.w3.org/2000/svg">
<g opacity="1.0">
<path d="M19.5 43.5002V32.9852C19.5 32.2502 20.25 31.5002 21 31.5002H27C27.75 31.5002 28.5 32.2502 28.5 33.0002V43.5002C28.5 43.8981 28.658 44.2796 28.9393 44.5609C29.2206 44.8422 29.6022 45.0002 30 45.0002H42C42.3978 45.0002 42.7794 44.8422 43.0607 44.5609C43.342 44.2796 43.5 43.8981 43.5 43.5002V22.5002C43.5004 22.3031 43.4618 22.1079 43.3867 21.9256C43.3115 21.7434 43.2012 21.5778 43.062 21.4382L39 17.3792V7.50024C39 7.10242 38.842 6.72088 38.5607 6.43958C38.2794 6.15828 37.8978 6.00024 37.5 6.00024H34.5C34.1022 6.00024 33.7206 6.15828 33.4393 6.43958C33.158 6.72088 33 7.10242 33 7.50024V11.3792L25.062 3.43824C24.9227 3.29855 24.7571 3.18772 24.5749 3.1121C24.3927 3.03648 24.1973 2.99756 24 2.99756C23.8027 2.99756 23.6073 3.03648 23.4251 3.1121C23.2429 3.18772 23.0773 3.29855 22.938 3.43824L4.938 21.4382C4.7988 21.5778 4.68846 21.7434 4.61331 21.9256C4.53815 22.1079 4.49965 22.3031 4.5 22.5002V43.5002C4.5 43.8981 4.65804 44.2796 4.93934 44.5609C5.22065 44.8422 5.60218 45.0002 6 45.0002H18C18.3978 45.0002 18.7794 44.8422 19.0607 44.5609C19.342 44.2796 19.5 43.8981 19.5 43.5002Z" fill="black"/>
</g>
</svg>
